<svg width="16" height="16" viewBox="0 0 16 16" fill="none" xmlns="http://www.w3.org/2000/svg">
<path d="M9.19168 4.53335C10.149 4.53335 10.925 3.75731 10.925 2.80001C10.925 1.84272 10.149 1.06668 9.19168 1.06668C8.23438 1.06668 7.45834 1.84272 7.45834 2.80001C7.45834 3.75731 8.23438 4.53335 9.19168 4.53335Z" fill="#2C2C2C"/>
<path d="M10.964 11.5663C10.9161 11.5341 10.8623 11.5118 10.8057 11.5007C10.749 11.4896 10.6907 11.4899 10.6342 11.5016C10.5777 11.5133 10.5241 11.5362 10.4766 11.5689C10.429 11.6016 10.3885 11.6434 10.3573 11.692C9.93843 12.3124 9.42525 12.8636 8.83633 13.3257C8.69333 13.434 8.16033 13.8457 7.935 13.759C7.779 13.7113 7.87 13.4037 7.90033 13.2737L8.13 12.5933C8.22533 12.316 9.885 7.39334 10.067 6.83001C10.3357 6.00668 10.2187 5.19634 8.99233 5.39134C8.65867 5.42601 5.27433 5.86368 5.21367 5.86801C5.15676 5.87171 5.10114 5.88658 5.04998 5.91178C4.99882 5.93697 4.95313 5.97199 4.9155 6.01485C4.87788 6.0577 4.84907 6.10755 4.83071 6.16154C4.81235 6.21553 4.8048 6.27261 4.8085 6.32951C4.8122 6.38642 4.82707 6.44204 4.85227 6.4932C4.87746 6.54436 4.91248 6.59005 4.95534 6.62767C4.99819 6.6653 5.04804 6.69411 5.10203 6.71247C5.15602 6.73083 5.21309 6.73838 5.27 6.73468C5.27 6.73468 6.57 6.56568 6.713 6.55268C6.78625 6.54553 6.86 6.55972 6.92536 6.59356C6.99071 6.62739 7.04488 6.67941 7.08133 6.74334C7.15985 6.98607 7.1491 7.24885 7.051 7.48434C6.93833 7.91768 5.15733 12.9357 5.101 13.226C5.04058 13.469 5.05736 13.7247 5.149 13.9577C5.24064 14.1907 5.40259 14.3893 5.61233 14.526C6.00602 14.7884 6.47478 14.9147 6.947 14.8857C7.40615 14.8801 7.86023 14.789 8.286 14.617C9.365 14.1837 10.4917 13.031 11.0853 12.1253C11.1365 12.0333 11.1523 11.9258 11.13 11.823C11.1077 11.7201 11.0487 11.6289 10.964 11.5663Z" fill="#2C2C2C"/>
</svg>
