<svg width="30" height="30" viewBox="0 0 30 30" fill="none" xmlns="http://www.w3.org/2000/svg">
<path d="M26.1837 10.3813C26.1711 9.43454 25.9939 8.49723 25.66 7.61126C25.3704 6.86395 24.9281 6.18526 24.3614 5.61855C23.7947 5.05184 23.116 4.60957 22.3687 4.32001C21.4941 3.9917 20.5702 3.81418 19.6362 3.79501C18.4337 3.74126 18.0525 3.72626 15 3.72626C11.9475 3.72626 11.5562 3.72626 10.3625 3.79501C9.42891 3.81432 8.5054 3.99184 7.63122 4.32001C6.88379 4.60937 6.20499 5.05156 5.63826 5.6183C5.07152 6.18503 4.62933 6.86383 4.33997 7.61126C4.011 8.48517 3.83387 9.4089 3.81622 10.3425C3.76247 11.5463 3.74622 11.9275 3.74622 14.98C3.74622 18.0325 3.74622 18.4225 3.81622 19.6175C3.83497 20.5525 4.01122 21.475 4.33997 22.3513C4.62981 23.0985 5.07234 23.777 5.63926 24.3435C6.20619 24.91 6.88505 25.352 7.63247 25.6413C8.50426 25.9828 9.42793 26.173 10.3637 26.2038C11.5675 26.2575 11.9487 26.2738 15.0012 26.2738C18.0537 26.2738 18.445 26.2738 19.6387 26.2038C20.5727 26.1854 21.4967 26.0083 22.3712 25.68C23.1183 25.3901 23.7969 24.9477 24.3635 24.3811C24.9302 23.8144 25.3726 23.1359 25.6625 22.3888C25.9912 21.5138 26.1675 20.5913 26.1862 19.655C26.24 18.4525 26.2562 18.0713 26.2562 15.0175C26.2537 11.965 26.2537 11.5775 26.1837 10.3813ZM14.9925 20.7525C11.8 20.7525 9.21372 18.1663 9.21372 14.9738C9.21372 11.7813 11.8 9.19501 14.9925 9.19501C16.5251 9.19501 17.9949 9.80384 19.0787 10.8876C20.1624 11.9713 20.7712 13.4411 20.7712 14.9738C20.7712 16.5064 20.1624 17.9762 19.0787 19.0599C17.9949 20.1437 16.5251 20.7525 14.9925 20.7525ZM21.0012 10.3288C20.255 10.3288 19.6537 9.72626 19.6537 8.98126C19.6537 8.80438 19.6886 8.62924 19.7562 8.46583C19.8239 8.30242 19.9231 8.15394 20.0482 8.02887C20.1733 7.9038 20.3218 7.80459 20.4852 7.73691C20.6486 7.66922 20.8237 7.63438 21.0006 7.63438C21.1775 7.63438 21.3526 7.66922 21.516 7.73691C21.6794 7.80459 21.8279 7.9038 21.953 8.02887C22.078 8.15394 22.1773 8.30242 22.2449 8.46583C22.3126 8.62924 22.3475 8.80438 22.3475 8.98126C22.3475 9.72626 21.745 10.3288 21.0012 10.3288Z" fill="#FEFEFE"/>
<path d="M14.9925 18.7275C17.0657 18.7275 18.7463 17.0469 18.7463 14.9738C18.7463 12.9006 17.0657 11.22 14.9925 11.22C12.9194 11.22 11.2388 12.9006 11.2388 14.9738C11.2388 17.0469 12.9194 18.7275 14.9925 18.7275Z" fill="#FEFEFE"/>
</svg>
