<svg width="26" height="26" viewBox="0 0 26 26" fill="none" xmlns="http://www.w3.org/2000/svg">
<path d="M13.338 12.9766C13.3809 12.961 13.4264 12.9493 13.4719 12.9363C13.3566 12.6806 13.2357 12.4275 13.1092 12.1771C10.6652 12.9012 8.32522 12.9077 7.90792 12.9012C7.90402 12.9337 7.90402 12.9675 7.90402 13C7.90402 14.2285 8.34602 15.4089 9.14942 16.3358C9.41722 15.9042 10.8368 13.7865 13.338 12.9766ZM9.90992 17.0469C10.617 17.5888 11.454 17.9354 12.3371 18.0522C13.2203 18.1691 14.1186 18.0519 14.9422 17.7125C14.7034 16.4162 14.3457 15.1446 13.8736 13.9139C11.1163 14.8889 10.075 16.7245 9.90992 17.0469ZM16.3215 9.13509C15.7206 8.61894 15.0077 8.24997 14.2393 8.05748C13.4709 7.86499 12.6683 7.85428 11.895 8.02619C12.5735 8.94795 13.1906 9.91333 13.7423 10.9161C15.4102 10.2752 16.1642 9.35089 16.3215 9.13509ZM12.6165 11.2632C12.0562 10.2806 11.4421 9.32977 10.777 8.41489C10.0904 8.74945 9.48732 9.23342 9.01201 9.83132C8.53671 10.4292 8.20121 11.1259 8.03012 11.8703H8.05222C8.58002 11.8703 10.4559 11.8274 12.6165 11.2632ZM14.9682 13.6448C15.5727 15.3257 15.8509 16.7219 15.9302 17.1691C17.0381 16.388 17.7905 15.1989 18.0219 13.8632C17.3487 13.672 16.6522 13.5753 15.9523 13.5759C15.6169 13.5759 15.2854 13.5993 14.9682 13.6448ZM13 0.519989C6.10742 0.519989 0.52002 6.10739 0.52002 13C0.52002 19.8926 6.10742 25.48 13 25.48C19.8926 25.48 25.48 19.8926 25.48 13C25.48 6.10739 19.8926 0.519989 13 0.519989ZM13 19.1061C11.3808 19.1047 9.82819 18.461 8.68295 17.3163C7.53772 16.1715 6.89338 14.6192 6.89132 13C6.8927 11.3803 7.53673 9.82731 8.68204 8.68201C9.82734 7.5367 11.3803 6.89267 13 6.89129C14.6194 6.89335 16.1718 7.53765 17.3168 8.68285C18.4617 9.82804 19.1057 11.3806 19.1074 13C19.1057 14.6191 18.4616 16.1714 17.3166 17.3162C16.1716 18.461 14.6192 19.1047 13 19.1061ZM14.1986 11.7962C14.3117 12.0302 14.417 12.2603 14.5132 12.4865L14.6055 12.7075C14.9656 12.6646 15.3504 12.6438 15.7521 12.6438C16.5378 12.6454 17.3216 12.7202 18.0934 12.8674C18.0637 11.7601 17.675 10.6925 16.9858 9.82539C16.7778 10.0932 15.9224 11.0773 14.1986 11.7962Z" fill="#FEFEFE"/>
</svg>
