<svg width="26" height="26" viewBox="0 0 26 26" fill="none" xmlns="http://www.w3.org/2000/svg">
<path d="M13 0.519989C6.10742 0.519989 0.52002 6.10739 0.52002 13C0.52002 19.8926 6.10742 25.48 13 25.48C19.8926 25.48 25.48 19.8926 25.48 13C25.48 6.10739 19.8926 0.519989 13 0.519989ZM18.0765 10.7432C18.0817 10.8498 18.083 10.9564 18.083 11.0604C18.083 14.3104 15.6117 18.0557 11.0903 18.0557C9.7543 18.0579 8.44608 17.6742 7.32292 16.9507C7.51402 16.9741 7.71032 16.9832 7.90922 16.9832C9.06102 16.9832 10.1205 16.5919 10.9616 15.9315C10.4491 15.9214 9.95239 15.7517 9.54086 15.446C9.12934 15.1402 8.82344 14.7137 8.66582 14.2259C9.03392 14.2959 9.41312 14.2812 9.77472 14.183C9.21838 14.0705 8.71808 13.769 8.35864 13.3298C7.9992 12.8905 7.80276 12.3404 7.80262 11.7728V11.7429C8.13412 11.9262 8.51372 12.038 8.91672 12.051C8.39516 11.7038 8.02594 11.1705 7.88458 10.5601C7.74321 9.94966 7.84039 9.30832 8.15622 8.76719C8.77366 9.52639 9.54366 10.1475 10.4164 10.5902C11.2891 11.0329 12.245 11.2874 13.2223 11.3373C13.0981 10.8099 13.1515 10.2562 13.3744 9.76234C13.5973 9.26847 13.9771 8.86208 14.4548 8.60633C14.9325 8.35059 15.4813 8.25983 16.0159 8.34816C16.5505 8.4365 17.0409 8.69897 17.4109 9.09479C17.961 8.98595 18.4886 8.78416 18.9709 8.49809C18.7876 9.06766 18.4037 9.55132 17.8906 9.85919C18.3779 9.8005 18.8537 9.66949 19.3024 9.47049C18.9729 9.96435 18.5577 10.3954 18.0765 10.7432Z" fill="#FEFEFE"/>
</svg>
